<?xml version="1.0" encoding="UTF-8"?>
<svg height="128px" viewBox="0 0 128 128" width="128px" xmlns="http://www.w3.org/2000/svg">
    <path d="m 26.820312 15.617188 c -20.691406 18.878906 -35.125 57.617187 -7.03125 83.28125 c 28.09375 25.664062 70.65625 12.464843 91.28125 -6.414063 c 20.625 -18.882813 18.570313 -51.359375 -4.675781 -72.601563 c -23.25 -21.242187 -58.914062 -23.117187 -79.574219 -4.265624 z m 0 0" fill="#bf360c"/>
    <path d="m 36.1875 83.945312 c 20.683594 18.871094 52.117188 20.785157 70.207031 4.277344 c 18.09375 -16.507812 15.996094 -45.1875 -4.6875 -64.058594 c -20.679687 -18.867187 -52.113281 -20.78125 -70.203125 -4.273437 c -18.09375 16.507813 -15.996094 45.183594 4.683594 64.054687 z m 0 0" fill="#ffffff"/>
    <path d="m 44.777344 76.109375 c 15.570312 14.207031 39.015625 15.851563 52.363281 3.667969 c 13.351563 -12.179688 11.550781 -33.570313 -4.019531 -47.777344 c -15.570313 -14.207031 -39.015625 -15.847656 -52.367188 -3.667969 c -13.347656 12.179688 -11.546875 33.570313 4.023438 47.777344 z m 0 0" fill="#b0bec5"/>
    <path d="m 40.75 28.324219 c -13.457031 12.277343 -11.539062 33.582031 4.039062 47.765625 c 3.25 3.011718 6.996094 5.539062 11.101563 7.492187 c -13.457031 -20.171875 10.902344 -55.71875 26.007813 -59.09375 c -14.164063 -6.753906 -30.617188 -5.648437 -41.148438 3.835938 z m 0 0" fill="#607d8b"/>
</svg>
